<svg width="21" height="24" viewBox="0 0 21 24" fill="none" xmlns="http://www.w3.org/2000/svg">
<path d="M20.7797 6.52966C21.0703 6.23904 21.0703 5.76091 20.7797 5.47029L16.2797 0.970288C15.9891 0.679663 15.5109 0.679663 15.2203 0.970288C14.9297 1.26091 14.9297 1.73904 15.2203 2.02966L18.4406 5.24998H0.75C0.3375 5.24998 0 5.58748 0 5.99998C0 6.41248 0.3375 6.74998 0.75 6.74998H18.4406L15.2203 9.97029C14.9297 10.2609 14.9297 10.739 15.2203 11.0297C15.5109 11.3203 15.9891 11.3203 16.2797 11.0297L20.7797 6.52966ZM4.72031 23.0297C5.01094 23.3203 5.48906 23.3203 5.77969 23.0297C6.07031 22.739 6.07031 22.2609 5.77969 21.9703L2.55937 18.75H20.25C20.6625 18.75 21 18.4125 21 18C21 17.5875 20.6625 17.25 20.25 17.25H2.55937L5.77969 14.0297C6.07031 13.739 6.07031 13.2609 5.77969 12.9703C5.48906 12.6797 5.01094 12.6797 4.72031 12.9703L0.220312 17.4703C-0.0703125 17.7609 -0.0703125 18.239 0.220312 18.5297L4.72031 23.0297Z" fill="#2A2924"/>
</svg>
