<svg width="30" height="24" viewBox="0 0 30 24" fill="none" xmlns="http://www.w3.org/2000/svg">
<path d="M6.85312 1.90781L6.52968 3.08438C6.46406 3.32813 6.27656 3.525 6.03281 3.6C5.34843 3.81563 4.72499 4.18125 4.20468 4.65469C4.01718 4.82812 3.75468 4.89375 3.50624 4.82812L2.32968 4.51875C2.22656 4.66406 2.12812 4.81406 2.03437 4.96875L1.92187 5.16562C1.83749 5.32031 1.75781 5.475 1.68749 5.63437L2.54531 6.50156C2.72343 6.68437 2.79843 6.94219 2.74218 7.19062C2.66249 7.53281 2.62499 7.88438 2.62499 8.25C2.62499 8.61563 2.66249 8.96719 2.73749 9.30469C2.79374 9.55313 2.71874 9.81094 2.54062 9.99375L1.68281 10.8656C1.75312 11.025 1.83281 11.1797 1.91718 11.3344L2.03437 11.5359C2.12812 11.6906 2.22656 11.8406 2.32968 11.9859L3.51093 11.6719C3.75937 11.6062 4.02187 11.6719 4.20937 11.8453C4.72968 12.3234 5.34843 12.6844 6.03749 12.9C6.28124 12.975 6.46874 13.1719 6.53437 13.4156L6.85781 14.5922C7.06874 14.6156 7.28437 14.625 7.50468 14.625C7.72499 14.625 7.93593 14.6156 8.15156 14.5922L8.47499 13.4156C8.54062 13.1719 8.72812 12.975 8.97187 12.9C9.65624 12.6844 10.2797 12.3187 10.8 11.8453C10.9875 11.6719 11.25 11.6062 11.4984 11.6719L12.6797 11.9813C12.7828 11.8406 12.8766 11.6953 12.9656 11.5453L13.0969 11.3203C13.1766 11.1703 13.2562 11.0203 13.3219 10.8656L12.4641 9.99844C12.2859 9.81563 12.2109 9.55781 12.2672 9.30938C12.3422 8.97188 12.3797 8.61563 12.3797 8.25C12.3797 7.88438 12.3422 7.53281 12.2672 7.19062C12.2109 6.94219 12.2859 6.68437 12.4641 6.50156L13.3219 5.63437C13.2516 5.47969 13.1766 5.32969 13.0969 5.17969L12.9656 4.95469C12.8766 4.80469 12.7781 4.65938 12.6797 4.51875L11.4891 4.82812C11.2406 4.89375 10.9781 4.82812 10.7906 4.65469C10.2703 4.17656 9.65156 3.81563 8.96249 3.6C8.71874 3.525 8.53124 3.32813 8.46562 3.08438L8.14218 1.90781C7.93124 1.88438 7.71562 1.875 7.49531 1.875C7.27499 1.875 7.06406 1.88438 6.84843 1.90781H6.85312ZM6.13124 0.492188C6.57656 0.417187 7.03593 0.375 7.49999 0.375C7.96406 0.375 8.42343 0.417187 8.86406 0.492188C9.14999 0.54375 9.37968 0.754687 9.45937 1.03125L9.81093 2.30625C10.425 2.54531 10.9875 2.87344 11.4937 3.27656L12.7734 2.94375C13.0547 2.86875 13.35 2.96719 13.5375 3.1875C13.8 3.50156 14.0391 3.83438 14.25 4.18594L14.2594 4.2L14.3953 4.43906L14.4047 4.45312C14.5969 4.80469 14.7656 5.175 14.9062 5.55937C15.0047 5.83125 14.9391 6.13594 14.7375 6.34219L13.8094 7.28437C13.8562 7.60312 13.8844 7.92656 13.8844 8.25469C13.8844 8.58281 13.8609 8.90625 13.8094 9.225L14.7375 10.1672C14.9391 10.3734 15.0094 10.6781 14.9062 10.95C14.7656 11.3344 14.5969 11.7 14.4047 12.0563L14.3953 12.0703L14.2547 12.3094L14.2453 12.3234C14.0344 12.675 13.7953 13.0078 13.5328 13.3219C13.3453 13.5422 13.05 13.6406 12.7687 13.5656L11.4891 13.2328C10.9875 13.6359 10.4203 13.9641 9.81093 14.2031L9.45937 15.4688C9.38437 15.75 9.14999 15.9609 8.86406 16.0078C8.41874 16.0875 7.96406 16.125 7.49999 16.125C7.03593 16.125 6.57656 16.0828 6.13124 16.0078C5.84531 15.9563 5.61562 15.7453 5.53593 15.4688L5.18437 14.1937C4.57031 13.9547 4.00781 13.6266 3.50624 13.2234L2.22656 13.5563C1.94531 13.6313 1.64999 13.5328 1.46249 13.3125C1.19531 12.9937 0.951556 12.6562 0.740619 12.3L0.735931 12.2906L0.614056 12.0797L0.609369 12.0703C0.412494 11.7141 0.239056 11.3391 0.0984311 10.95C-6.35535e-06 10.6781 0.0656186 10.3734 0.267181 10.1672L1.19531 9.225C1.14843 8.90156 1.12499 8.57812 1.12499 8.25C1.12499 7.92188 1.14843 7.59844 1.19999 7.27969L0.267181 6.3375C0.0656186 6.13125 -0.00469386 5.82656 0.0984311 5.55469C0.239056 5.16563 0.412494 4.79063 0.609369 4.43437L0.614056 4.425L0.735931 4.21406L0.740619 4.20469C0.956244 3.84375 1.19999 3.50625 1.46718 3.1875C1.65468 2.96719 1.94999 2.86875 2.23124 2.94375L3.51093 3.27656C4.01249 2.87344 4.57968 2.54531 5.18906 2.30625L5.54062 1.03125C5.61562 0.75 5.84999 0.539062 6.13593 0.492188H6.13124ZM4.87499 8.25C4.87499 7.90528 4.94289 7.56394 5.07481 7.24546C5.20673 6.92698 5.40008 6.6376 5.64384 6.39384C5.88759 6.15009 6.17697 5.95674 6.49545 5.82482C6.81393 5.6929 7.15527 5.625 7.49999 5.625C7.84471 5.625 8.18606 5.6929 8.50454 5.82482C8.82302 5.95674 9.1124 6.15009 9.35615 6.39384C9.5999 6.6376 9.79326 6.92698 9.92518 7.24546C10.0571 7.56394 10.125 7.90528 10.125 8.25C10.125 8.59472 10.0571 8.93606 9.92518 9.25454C9.79326 9.57302 9.5999 9.8624 9.35615 10.1062C9.1124 10.3499 8.82302 10.5433 8.50454 10.6752C8.18606 10.8071 7.84471 10.875 7.49999 10.875C7.15527 10.875 6.81393 10.8071 6.49545 10.6752C6.17697 10.5433 5.88759 10.3499 5.64384 10.1062C5.40008 9.8624 5.20673 9.57302 5.07481 9.25454C4.94289 8.93606 4.87499 8.59472 4.87499 8.25ZM7.49999 9.375C7.64773 9.375 7.79402 9.3459 7.93051 9.28936C8.067 9.23283 8.19102 9.14996 8.29549 9.0455C8.39995 8.94103 8.48282 8.81701 8.53936 8.68052C8.59589 8.54403 8.62499 8.39774 8.62499 8.25C8.62499 8.10226 8.59589 7.95597 8.53936 7.81948C8.48282 7.68299 8.39995 7.55897 8.29549 7.4545C8.19102 7.35004 8.067 7.26717 7.93051 7.21064C7.79402 7.1541 7.64773 7.125 7.49999 7.125C7.35226 7.125 7.20597 7.1541 7.06947 7.21064C6.93298 7.26717 6.80896 7.35004 6.7045 7.4545C6.60003 7.55897 6.51717 7.68299 6.46063 7.81948C6.40409 7.95597 6.37499 8.10226 6.37499 8.25C6.37499 8.39774 6.40409 8.54403 6.46063 8.68052C6.51717 8.81701 6.60003 8.94103 6.7045 9.0455C6.80896 9.14996 6.93298 9.23283 7.06947 9.28936C7.20597 9.3459 7.35226 9.375 7.49999 9.375ZM15.4078 17.1469L16.5844 17.4703C16.8281 17.5359 17.025 17.7234 17.1 17.9672C17.3156 18.6516 17.6812 19.275 18.1547 19.7953C18.3281 19.9828 18.3937 20.2453 18.3281 20.4938L18.0187 21.675C18.1641 21.7781 18.3141 21.8766 18.4687 21.9703L18.6656 22.0828C18.8203 22.1672 18.975 22.2469 19.1344 22.3172L20.0016 21.4594C20.1844 21.2812 20.4422 21.2063 20.6906 21.2625C21.0281 21.3375 21.3844 21.375 21.7453 21.375C22.1062 21.375 22.4625 21.3375 22.8 21.2625C23.0484 21.2063 23.3062 21.2812 23.4891 21.4594L24.3562 22.3172C24.5156 22.2469 24.6703 22.1672 24.825 22.0828L25.0266 21.9656C25.1812 21.8719 25.3312 21.7734 25.4766 21.6703L25.1719 20.4891C25.1062 20.2406 25.1719 19.9781 25.3453 19.7906C25.8234 19.2703 26.1844 18.6516 26.4 17.9625C26.475 17.7188 26.6719 17.5312 26.9156 17.4656L28.0922 17.1422C28.1156 16.9313 28.125 16.7156 28.125 16.4953C28.125 16.275 28.1156 16.0641 28.0922 15.8484L26.9156 15.525C26.6719 15.4594 26.475 15.2719 26.4 15.0281C26.1844 14.3391 25.8187 13.7203 25.3453 13.2C25.1719 13.0125 25.1062 12.75 25.1719 12.5016L25.4812 11.3203C25.3406 11.2172 25.1953 11.1234 25.0453 11.0344L24.8203 10.9031C24.6703 10.8234 24.5203 10.7438 24.3656 10.6781L23.4984 11.5359C23.3156 11.7141 23.0578 11.7891 22.8094 11.7328C22.4719 11.6578 22.1156 11.6203 21.75 11.6203C21.3844 11.6203 21.0328 11.6578 20.6906 11.7328C20.4422 11.7891 20.1844 11.7141 20.0016 11.5359L19.1344 10.6781C18.9797 10.7484 18.8297 10.8234 18.6797 10.9031L18.4547 11.0344C18.3047 11.1234 18.1594 11.2219 18.0187 11.3203L18.3281 12.5016C18.3937 12.75 18.3281 13.0125 18.1547 13.2C17.6766 13.7203 17.3156 14.3391 17.1 15.0281C17.025 15.2719 16.8281 15.4594 16.5844 15.525L15.4078 15.8484C15.3844 16.0594 15.375 16.275 15.375 16.4953C15.375 16.7156 15.3844 16.9266 15.4078 17.1422V17.1469ZM13.9922 17.8688C13.9125 17.4234 13.875 16.9688 13.875 16.5C13.875 16.0312 13.9172 15.5766 13.9922 15.1359C14.0437 14.85 14.2547 14.6203 14.5312 14.5406L15.8062 14.1891C16.0453 13.575 16.3734 13.0125 16.7766 12.5062L16.4437 11.2266C16.3687 10.9453 16.4672 10.65 16.6875 10.4625C17.0016 10.2 17.3344 9.96094 17.6859 9.75L17.7 9.74063L17.9391 9.60469L17.9531 9.59531C18.3047 9.40312 18.675 9.23438 19.0594 9.09375C19.3312 8.99531 19.6359 9.06094 19.8422 9.2625L20.7844 10.1906C21.1031 10.1437 21.4266 10.1156 21.7547 10.1156C22.0828 10.1156 22.4062 10.1391 22.725 10.1906L23.6672 9.2625C23.8734 9.06094 24.1781 8.99063 24.45 9.09375C24.8344 9.23438 25.2 9.40312 25.5562 9.59531L25.5703 9.60469L25.8094 9.74531L25.8234 9.75469C26.175 9.96563 26.5078 10.2047 26.8219 10.4672C27.0422 10.6547 27.1359 10.95 27.0656 11.2313L26.7328 12.5109C27.1359 13.0125 27.4641 13.5797 27.7031 14.1891L28.9781 14.5406C29.2594 14.6156 29.4703 14.85 29.5172 15.1359C29.5969 15.5812 29.6344 16.0359 29.6344 16.5C29.6344 16.9641 29.5922 17.4234 29.5172 17.8688C29.4656 18.1547 29.2547 18.3844 28.9781 18.4641L27.7031 18.8156C27.4641 19.4297 27.1359 19.9922 26.7328 20.4938L27.0656 21.7734C27.1406 22.0547 27.0422 22.35 26.8219 22.5375C26.5031 22.8047 26.1656 23.0484 25.8094 23.2594L25.8 23.2641L25.5891 23.3859L25.5797 23.3906C25.2234 23.5875 24.8484 23.7609 24.4594 23.9016C24.1875 24 23.8828 23.9344 23.6766 23.7328L22.7344 22.8047C22.4156 22.8516 22.0922 22.8797 21.7641 22.8797C21.4359 22.8797 21.1125 22.8563 20.7937 22.8047L19.8516 23.7328C19.6453 23.9344 19.3406 24.0047 19.0687 23.9016C18.6797 23.7609 18.3047 23.5875 17.9484 23.3906L17.9391 23.3859L17.7281 23.2641L17.7187 23.2594C17.3625 23.0438 17.0203 22.8 16.7062 22.5375C16.4859 22.35 16.3875 22.0547 16.4625 21.7734L16.7953 20.4938C16.3922 19.9922 16.0641 19.425 15.825 18.8156L14.5312 18.4594C14.25 18.3844 14.0391 18.15 13.9922 17.8641V17.8688ZM21.75 19.125C21.0538 19.125 20.3861 18.8484 19.8938 18.3562C19.4016 17.8639 19.125 17.1962 19.125 16.5C19.125 15.8038 19.4016 15.1361 19.8938 14.6438C20.3861 14.1516 21.0538 13.875 21.75 13.875C22.4462 13.875 23.1139 14.1516 23.6061 14.6438C24.0984 15.1361 24.375 15.8038 24.375 16.5C24.375 17.1962 24.0984 17.8639 23.6061 18.3562C23.1139 18.8484 22.4462 19.125 21.75 19.125ZM22.875 16.5C22.875 16.2016 22.7565 15.9155 22.5455 15.7045C22.3345 15.4935 22.0484 15.375 21.75 15.375C21.4516 15.375 21.1655 15.4935 20.9545 15.7045C20.7435 15.9155 20.625 16.2016 20.625 16.5C20.625 16.7984 20.7435 17.0845 20.9545 17.2955C21.1655 17.5065 21.4516 17.625 21.75 17.625C22.0484 17.625 22.3345 17.5065 22.5455 17.2955C22.7565 17.0845 22.875 16.7984 22.875 16.5Z" fill="#2A2924"/>
</svg>
