<svg width="24" height="24" viewBox="0 0 24 24" fill="none" xmlns="http://www.w3.org/2000/svg">
<path d="M0.75 1.5C1.1625 1.5 1.5 1.8375 1.5 2.25V18.75C1.5 19.9922 2.50781 21 3.75 21H23.25C23.6625 21 24 21.3375 24 21.75C24 22.1625 23.6625 22.5 23.25 22.5H3.75C1.67812 22.5 0 20.8219 0 18.75V2.25C0 1.8375 0.3375 1.5 0.75 1.5ZM6.75 10.5C7.1625 10.5 7.5 10.8375 7.5 11.25V15.75C7.5 16.1625 7.1625 16.5 6.75 16.5C6.3375 16.5 6 16.1625 6 15.75V11.25C6 10.8375 6.3375 10.5 6.75 10.5ZM12 6.75V11.25C12 11.6625 11.6625 12 11.25 12C10.8375 12 10.5 11.6625 10.5 11.25V6.75C10.5 6.3375 10.8375 6 11.25 6C11.6625 6 12 6.3375 12 6.75ZM15.75 3C16.1625 3 16.5 3.3375 16.5 3.75V8.25C16.5 8.6625 16.1625 9 15.75 9C15.3375 9 15 8.6625 15 8.25V3.75C15 3.3375 15.3375 3 15.75 3ZM21 3.75V15.75C21 16.1625 20.6625 16.5 20.25 16.5C19.8375 16.5 19.5 16.1625 19.5 15.75V3.75C19.5 3.3375 19.8375 3 20.25 3C20.6625 3 21 3.3375 21 3.75Z" fill="#2A2924"/>
</svg>
