<svg width="27" height="24" viewBox="0 0 27 24" fill="none" xmlns="http://www.w3.org/2000/svg">
<path d="M3 3C2.17031 3 1.5 3.67031 1.5 4.5V6H25.5V4.5C25.5 3.67031 24.8297 3 24 3H3ZM1.5 7.5V10.5H25.5V7.5H1.5ZM1.5 12V19.5C1.5 20.3297 2.17031 21 3 21H24C24.8297 21 25.5 20.3297 25.5 19.5V12H1.5ZM0 4.5C0 2.84531 1.34531 1.5 3 1.5H24C25.6547 1.5 27 2.84531 27 4.5V19.5C27 21.1547 25.6547 22.5 24 22.5H3C1.34531 22.5 0 21.1547 0 19.5V4.5ZM4.5 17.25C4.5 16.8375 4.8375 16.5 5.25 16.5H8.25C8.6625 16.5 9 16.8375 9 17.25C9 17.6625 8.6625 18 8.25 18H5.25C4.8375 18 4.5 17.6625 4.5 17.25ZM10.5 17.25C10.5 16.8375 10.8375 16.5 11.25 16.5H17.25C17.6625 16.5 18 16.8375 18 17.25C18 17.6625 17.6625 18 17.25 18H11.25C10.8375 18 10.5 17.6625 10.5 17.25Z" fill="#2A2924"/>
</svg>
