<svg width="27" height="24" viewBox="0 0 27 24" fill="none" xmlns="http://www.w3.org/2000/svg">
<path d="M22.5 4.5C22.5 6.15469 23.8453 7.5 25.5 7.5V6C25.5 5.17031 24.8297 4.5 24 4.5H22.5ZM21 4.5H6C6 6.98438 3.98438 9 1.5 9V15C3.98438 15 6 17.0156 6 19.5H21C21 17.0156 23.0156 15 25.5 15V9C23.0156 9 21 6.98438 21 4.5ZM1.5 18C1.5 18.8297 2.17031 19.5 3 19.5H4.5C4.5 17.8453 3.15469 16.5 1.5 16.5V18ZM25.5 16.5C23.8453 16.5 22.5 17.8453 22.5 19.5H24C24.8297 19.5 25.5 18.8297 25.5 18V16.5ZM3 4.5C2.17031 4.5 1.5 5.17031 1.5 6V7.5C3.15469 7.5 4.5 6.15469 4.5 4.5H3ZM0 6C0 4.34531 1.34531 3 3 3H24C25.6547 3 27 4.34531 27 6V18C27 19.6547 25.6547 21 24 21H3C1.34531 21 0 19.6547 0 18V6ZM16.5 12C16.5 11.2044 16.1839 10.4413 15.6213 9.87868C15.0587 9.31607 14.2956 9 13.5 9C12.7044 9 11.9413 9.31607 11.3787 9.87868C10.8161 10.4413 10.5 11.2044 10.5 12C10.5 12.7956 10.8161 13.5587 11.3787 14.1213C11.9413 14.6839 12.7044 15 13.5 15C14.2956 15 15.0587 14.6839 15.6213 14.1213C16.1839 13.5587 16.5 12.7956 16.5 12ZM9 12C9 10.8065 9.47411 9.66193 10.318 8.81802C11.1619 7.97411 12.3065 7.5 13.5 7.5C14.6935 7.5 15.8381 7.97411 16.682 8.81802C17.5259 9.66193 18 10.8065 18 12C18 13.1935 17.5259 14.3381 16.682 15.182C15.8381 16.0259 14.6935 16.5 13.5 16.5C12.3065 16.5 11.1619 16.0259 10.318 15.182C9.47411 14.3381 9 13.1935 9 12Z" fill="#2A2924"/>
</svg>
