<svg width="33" height="33" viewBox="0 0 33 33" fill="none" xmlns="http://www.w3.org/2000/svg">
    <g clip-path="url(#clip0_1_434)">
        <path fill-rule="evenodd" clip-rule="evenodd"
              d="M21.137 26.927C21.274 26.0775 21.1966 25.2072 20.912 24.3952C20.6273 23.5832 20.1444 22.8551 19.507 22.277C18.5542 21.403 17.3079 20.9187 16.015 20.92C15.2645 20.9214 14.5245 20.7431 13.857 20.4H13.855C12.9757 19.9454 12.2599 19.2282 11.807 18.348C12.0695 17.6578 12.2034 16.9244 12.202 16.186C12.2021 16.6905 12.3022 17.1899 12.4964 17.6555C12.6906 18.1211 12.9752 18.5436 13.3336 18.8986C13.692 19.2536 14.1173 19.5341 14.5847 19.7238C15.0521 19.9135 15.5525 20.0088 16.057 20.004C17.0563 19.9841 18.008 19.5733 18.7077 18.8596C19.4075 18.146 19.7997 17.1865 19.8 16.187C19.8 15.425 19.938 14.697 20.195 14.026V14.024C20.495 13.226 20.96 12.506 21.548 11.909C22.1501 11.2913 22.877 10.8091 23.6803 10.4946C24.4835 10.1801 25.3445 10.0404 26.206 10.085C25.1973 8.39857 23.7897 6.98582 22.107 5.971C22.1765 7.39079 21.7466 8.79009 20.892 9.926C20.6518 9.73637 20.4003 9.56138 20.139 9.402C20.8283 8.4997 21.2012 7.39547 21.2 6.26C21.2014 5.58539 21.0702 4.91707 20.814 4.293C20.4326 3.36185 19.789 2.56149 18.9614 1.98916C18.1338 1.41683 17.1578 1.09717 16.152 1.069C16.106 1.067 16.06 1.067 16.014 1.067C15.969 1.067 15.923 1.067 15.877 1.069C14.567 1.079 13.297 1.259 12.087 1.587C9.53506 2.28124 7.20907 3.63088 5.33996 5.50192C3.47084 7.37297 2.12361 9.70034 1.432 12.253C0.540227 13.3097 0.0351387 14.6387 0 16.021C0.087 7.296 7.135 0.240003 15.849 0.153003C15.904 0.151003 15.959 0.151003 16.013 0.151003C16.0873 0.150603 16.1617 0.151603 16.236 0.154003C24.91 0.287003 31.912 7.326 31.998 16.022C32 16.077 32 16.132 32 16.187C32 16.241 32 16.297 31.998 16.351C31.9629 17.7333 31.4578 19.0623 30.566 20.119C30.0273 20.7606 29.3621 21.2843 28.6119 21.6573C27.8617 22.0303 27.0427 22.2447 26.206 22.287C24.7816 22.361 23.3767 21.9308 22.238 21.072C21.8444 21.5793 21.3896 22.0361 20.884 22.432L20.894 22.445C21.749 23.5815 22.1789 24.9815 22.109 26.402C23.7915 25.3868 25.1988 23.9737 26.207 22.287C26.5896 22.2681 26.9696 22.2135 27.342 22.124C25.9284 24.8207 23.6064 26.9305 20.787 28.08C19.2625 28.6991 17.6324 29.0163 15.987 29.014C15.5418 29.0141 15.1026 28.9114 14.7036 28.7138C14.3047 28.5163 13.9567 28.2292 13.687 27.875C13.2342 27.2851 13.0256 26.5436 13.1046 25.8042C13.1835 25.0648 13.5439 24.384 14.111 23.903C14.7251 24.0526 15.3549 24.1278 15.987 24.127C15.7264 24.1271 15.4683 24.1786 15.2276 24.2785C14.9869 24.3784 14.7682 24.5247 14.584 24.7092C14.3999 24.8936 14.2539 25.1125 14.1544 25.3534C14.0548 25.5942 14.0037 25.8524 14.004 26.113C14.004 27.209 14.892 28.098 15.987 28.098C15.9963 28.098 16.0057 28.098 16.015 28.098C16.2756 28.0979 16.5337 28.0464 16.7744 27.9465C17.0151 27.8466 17.2338 27.7003 17.418 27.5158C17.6021 27.3314 17.7481 27.1125 17.8476 26.8716C17.9472 26.6308 17.9983 26.3726 17.998 26.112C17.9981 25.8515 17.9469 25.5934 17.8474 25.3527C17.7478 25.1119 17.6017 24.8931 17.4176 24.7088C17.2335 24.5245 17.0148 24.3782 16.7742 24.2784C16.5335 24.1786 16.2755 24.1271 16.015 24.127C14.8088 24.1281 13.6184 23.8533 12.5348 23.3237C11.4512 22.794 10.503 22.0234 9.763 21.071C10.009 20.886 10.24 20.683 10.453 20.463C11.0174 21.1975 11.7208 21.8138 12.523 22.277C13.5849 22.8891 14.7893 23.2109 16.015 23.21C16.73 23.21 17.386 23.472 17.891 23.902C18.4573 24.3823 18.8175 25.0618 18.8972 25.8C18.9768 26.5383 18.7698 27.279 18.319 27.869C19.2943 27.6751 20.2412 27.3586 21.137 26.927ZM27.659 13.882C27.468 12.906 27.1549 11.9578 26.727 11.06C25.8764 10.9205 25.0043 10.9966 24.1907 11.2814C23.3771 11.5662 22.648 12.0505 22.07 12.69C21.1966 13.645 20.7132 14.8928 20.715 16.187C20.716 16.9381 20.5377 17.6786 20.195 18.347V18.349C19.7438 19.2249 19.0321 19.9394 18.158 20.394L18.173 20.399H18.175C18.967 20.698 19.681 21.159 20.275 21.742C21.0018 21.1793 21.6119 20.4803 22.071 19.684C22.6827 18.6201 23.0041 17.4142 23.003 16.187C23.003 15.47 23.263 14.814 23.693 14.308C24.1727 13.741 24.8523 13.3804 25.5907 13.3011C26.3292 13.2218 27.0698 13.4298 27.659 13.882ZM27.882 16.101C27.8613 15.5752 27.6326 15.0792 27.2462 14.722C26.8598 14.3648 26.3473 14.1758 25.8215 14.1965C25.2957 14.2172 24.7997 14.4459 24.4425 14.8323C24.0853 15.2187 23.8963 15.7312 23.917 16.257C23.9272 16.5173 23.9887 16.7731 24.0978 17.0097C24.2069 17.2463 24.3615 17.4591 24.5528 17.636C24.7442 17.8128 24.9684 17.9503 25.2129 18.0404C25.4573 18.1306 25.7172 18.1717 25.9775 18.1615C26.2378 18.1513 26.4936 18.0898 26.7302 17.9807C26.9668 17.8717 27.1796 17.717 27.3565 17.5257C27.5333 17.3344 27.6708 17.1101 27.7609 16.8656C27.8511 16.6212 27.8922 16.3613 27.882 16.101ZM23.693 18.066C23.5015 18.8602 23.1874 19.6196 22.762 20.317C23.6621 21.007 24.7649 21.3804 25.899 21.379C26.5726 21.3804 27.24 21.2492 27.863 20.993C28.794 20.6099 29.5939 19.9648 30.1654 19.136C30.737 18.3073 31.0558 17.3304 31.083 16.324C31.085 16.278 31.085 16.232 31.085 16.187C31.085 16.141 31.085 16.095 31.083 16.049C31.0731 14.7671 30.8994 13.4918 30.566 12.254C29.8765 9.70892 28.5352 7.38763 26.6746 5.51926C24.8139 3.65089 22.4982 2.30002 19.956 1.6C20.9472 2.43898 21.645 3.57223 21.948 4.835C24.6283 6.25407 26.7229 8.5721 27.864 11.382C28.466 12.866 28.797 14.489 28.797 16.188C28.797 17.125 28.35 17.96 27.659 18.49C27.0702 18.9426 26.3298 19.1511 25.5913 19.0723C24.8529 18.9936 24.1731 18.6326 23.693 18.066ZM15.763 32.218C7.09 32.085 0.089 25.046 0.003 16.35C0 16.296 0 16.24 0 16.186C0 16.131 0 16.076 0.002 16.021C0.0371387 14.6387 0.542227 13.3097 1.434 12.253C1.97272 11.6114 2.63793 11.0877 3.3881 10.7147C4.13826 10.3417 4.95728 10.1273 5.794 10.085C7.21836 10.011 8.62327 10.4412 9.762 11.3C10.1556 10.7927 10.6104 10.3359 11.116 9.94C10.2545 8.80141 9.82084 7.39608 9.891 5.97C8.20851 6.98522 6.80225 8.39832 5.794 10.085C5.41142 10.1039 5.03044 10.1585 4.658 10.248C6.07182 7.55168 8.39374 5.44229 11.213 4.293C12.7374 3.67357 14.3676 3.35603 16.013 3.358C16.95 3.358 17.784 3.806 18.313 4.498C18.7658 5.08789 18.9744 5.82936 18.8954 6.5688C18.8165 7.30825 18.4561 7.98899 17.889 8.47C17.2749 8.3203 16.6451 8.24476 16.013 8.245C16.2735 8.24487 16.5315 8.19342 16.7722 8.0936C17.0128 7.99377 17.2315 7.84752 17.4156 7.6632C17.5997 7.47887 17.7458 7.26008 17.8454 7.01932C17.9449 6.77856 17.9961 6.52055 17.996 6.26C17.9963 5.99938 17.9452 5.74125 17.8456 5.50038C17.7461 5.2595 17.6001 5.04059 17.416 4.85616C17.2318 4.67173 17.0131 4.52539 16.7724 4.4255C16.5317 4.32561 16.2736 4.27413 16.013 4.274C16.0037 4.27432 15.9943 4.27466 15.985 4.275C15.7245 4.27513 15.4665 4.32658 15.2258 4.42641C14.9852 4.52623 14.7665 4.67249 14.5824 4.85681C14.3983 5.04113 14.2522 5.25992 14.1526 5.50068C14.0531 5.74144 14.0019 5.99946 14.002 6.26C14.002 7.357 14.89 8.246 15.985 8.246C17.1911 8.24475 18.3815 8.51938 19.4651 9.04889C20.5487 9.57839 21.4969 10.3487 22.237 11.301C21.9917 11.4856 21.762 11.6888 21.548 11.909C20.9836 11.1745 20.2792 10.5582 19.477 10.095C18.4151 9.48288 17.2107 9.16109 15.985 9.162C15.2971 9.16252 14.6318 8.91708 14.109 8.47C13.543 7.98975 13.1829 7.31048 13.1033 6.57244C13.0236 5.8344 13.2304 5.09396 13.681 4.504C12.7058 4.69723 11.7589 5.01307 10.863 5.444C10.726 6.29351 10.8034 7.16378 11.088 7.97582C11.3727 8.78785 11.8556 9.51595 12.493 10.094C13.4456 10.9684 14.6919 11.453 15.985 11.452C16.763 11.452 17.497 11.64 18.143 11.973H18.145C19.0241 12.4274 19.7399 13.1442 20.193 14.024V14.026C19.9306 14.7159 19.7967 15.4479 19.798 16.186C19.7978 15.6816 19.6976 15.1823 19.5033 14.7168C19.309 14.2513 19.0245 13.8289 18.666 13.4741C18.3076 13.1192 17.8824 12.8388 17.4151 12.6491C16.9477 12.4595 16.4474 12.3642 15.943 12.369C14.9437 12.3889 13.992 12.7997 13.2923 13.5134C12.5925 14.227 12.2003 15.1865 12.2 16.186C12.2019 16.9241 12.068 17.6563 11.805 18.346V18.348C11.5064 19.1396 11.0456 19.8601 10.452 20.463C9.84988 21.0807 9.12296 21.5629 8.31974 21.8774C7.51652 22.192 6.65546 22.3316 5.794 22.287C6.80253 23.9738 8.21014 25.3869 9.893 26.402C9.82353 24.9822 10.2534 23.5829 11.108 22.447C11.347 22.636 11.598 22.81 11.861 22.97C11.1719 23.8727 10.7993 24.9773 10.801 26.113C10.7996 26.7876 10.9308 27.4559 11.187 28.08C11.5774 29.0327 12.2422 29.8479 13.0968 30.4221C13.9514 30.9963 14.9574 31.3036 15.987 31.305C16.032 31.305 16.078 31.305 16.124 31.303C17.434 31.293 18.704 31.113 19.914 30.786C22.4659 30.0915 24.7917 28.7417 26.6607 26.8704C28.5296 24.9992 29.8766 22.6717 30.568 20.119C31.46 19.062 31.9651 17.7326 32 16.35C31.913 25.075 24.865 32.132 16.151 32.219L15.987 32.22L15.822 32.219L15.764 32.217L15.763 32.218ZM12.045 30.773C11.0534 29.9342 10.3552 28.8009 10.052 27.538C7.37189 26.1192 5.27729 23.8015 4.136 20.992C3.51754 19.4653 3.2007 17.8332 3.203 16.186C3.203 15.248 3.65 14.413 4.341 13.883C4.9298 13.4304 5.67023 13.2219 6.40867 13.3007C7.14711 13.3794 7.82689 13.7394 8.307 14.306C8.49847 13.5118 8.81258 12.7524 9.238 12.055C8.3378 11.3654 7.23501 10.9924 6.101 10.994C5.42735 10.9926 4.76002 11.1238 4.137 11.38C3.20612 11.763 2.4064 12.408 1.83483 13.2365C1.26327 14.0651 0.944434 15.0418 0.917 16.048C0.915 16.094 0.915 16.14 0.915 16.186C0.913646 17.5138 1.08816 18.836 1.434 20.118C2.12334 22.6633 3.46454 24.9848 5.32521 26.8533C7.18587 28.7219 9.50167 30.0729 12.044 30.773H12.045ZM5.273 21.313C5.543 21.355 5.818 21.378 6.099 21.378C6.82049 21.3793 7.53421 21.2292 8.19398 20.9372C8.85374 20.6452 9.44484 20.2179 9.929 19.683C10.8027 18.7281 11.2866 17.4803 11.285 16.186C11.285 15.406 11.473 14.672 11.805 14.025V14.023C12.2561 13.1476 12.9674 12.4335 13.841 11.979C13.8363 11.977 13.8317 11.975 13.827 11.973H13.825C13.0394 11.6758 12.3243 11.2184 11.725 10.63C10.9981 11.193 10.388 11.8924 9.929 12.689C9.31734 13.7529 8.99594 14.9588 8.997 16.186C8.99794 16.8742 8.75327 17.5401 8.307 18.064C7.82731 18.631 7.14774 18.9916 6.40928 19.0709C5.67082 19.1502 4.93017 18.9422 4.341 18.49C4.535 19.48 4.851 20.428 5.273 21.313ZM4.118 16.272C4.14953 16.7899 4.38272 17.2749 4.76758 17.623C5.15245 17.971 5.65836 18.1544 6.17685 18.1339C6.69535 18.1134 7.18517 17.8905 7.5413 17.5131C7.89743 17.1357 8.09154 16.6338 8.082 16.115C8.07715 15.851 8.01963 15.5906 7.91282 15.349C7.80601 15.1075 7.65206 14.8897 7.45999 14.7085C7.26792 14.5273 7.0416 14.3862 6.7943 14.2935C6.547 14.2009 6.28369 14.1586 6.01982 14.169C5.75594 14.1795 5.49681 14.2425 5.25761 14.3544C5.01841 14.4663 4.80395 14.6248 4.62682 14.8207C4.44969 15.0166 4.31344 15.2458 4.22607 15.4951C4.1387 15.7443 4.10196 16.0084 4.118 16.272Z"
              fill="#fff"/>
    </g>
    <defs>
        <clipPath id="clip0_1_434">
            <rect width="32" height="33" fill="#272735"/>
        </clipPath>
    </defs>
</svg>
